<svg width="26" height="24" viewBox="0 0 26 24" fill="none" xmlns="http://www.w3.org/2000/svg">
<path d="M12.9585 21V13M12.9585 21L6.74428 16.5978C6.33066 16.3048 6.12384 16.1583 6.01212 15.9422C5.90039 15.7262 5.90039 15.4727 5.90039 14.9658V8M12.9585 21L19.1727 16.5978C19.5863 16.3048 19.7931 16.1583 19.9048 15.9422C20.0166 15.7262 20.0166 15.4727 20.0166 14.9658V8M12.9585 13L5.90039 8M12.9585 13L20.0166 8M5.90039 8L11.8024 3.819C12.3609 3.42333 12.6402 3.2255 12.9585 3.2255C13.2768 3.2255 13.5561 3.42333 14.1146 3.819L20.0166 8" stroke="#33363F" stroke-width="2" stroke-linejoin="round"/>
</svg>
