<svg width="40" height="40" viewBox="0 0 40 40" fill="none" xmlns="http://www.w3.org/2000/svg">
<path d="M23.3333 31.6667H28C29.1046 31.6667 30 30.7712 30 29.6667V23.2282C30 22.3105 30.6246 21.5105 31.5149 21.2879L35.6965 20.2425C35.949 20.1794 35.949 19.8206 35.6965 19.7575L31.5149 18.7121C30.6246 18.4895 30 17.6895 30 16.7718V8.33332H23.3333" stroke="#33363F" stroke-width="2"/>
<path d="M16.6667 8.33334H12C10.8954 8.33334 10 9.22877 10 10.3333V16.7718C10 17.6895 9.37542 18.4895 8.48508 18.7121L4.30349 19.7575C4.051 19.8206 4.051 20.1794 4.30349 20.2425L8.48508 21.2879C9.37542 21.5105 10 22.3105 10 23.2282V31.6667H16.6667" stroke="#33363F" stroke-width="2"/>
</svg>
