<svg width="40" height="40" viewBox="0 0 40 40" fill="none" xmlns="http://www.w3.org/2000/svg">
<circle cx="20" cy="13.3333" r="5.66667" stroke="#33363F" stroke-width="2" stroke-linecap="round"/>
<path d="M24.8692 13C25.3997 12.0813 26.2733 11.4109 27.2981 11.1363C28.3228 10.8617 29.4146 11.0055 30.3333 11.5359C31.2521 12.0663 31.9225 12.94 32.197 13.9647C32.4716 14.9894 32.3279 16.0813 31.7974 17C31.267 17.9187 30.3933 18.5891 29.3686 18.8637C28.3439 19.1383 27.2521 18.9945 26.3333 18.4641C25.4146 17.9337 24.7442 17.06 24.4696 16.0353C24.1951 15.0106 24.3388 13.9187 24.8692 13L24.8692 13Z" stroke="#33363F" stroke-width="2"/>
<path d="M8.20255 13C8.73299 12.0813 9.60666 11.4109 10.6314 11.1363C11.6561 10.8617 12.7479 11.0055 13.6667 11.5359C14.5854 12.0663 15.2558 12.94 15.5304 13.9647C15.8049 14.9894 15.6612 16.0813 15.1308 17C14.6003 17.9187 13.7267 18.5891 12.7019 18.8637C11.6772 19.1383 10.5854 18.9945 9.66666 18.4641C8.74792 17.9337 8.07753 17.06 7.80295 16.0353C7.52838 15.0106 7.67212 13.9187 8.20255 13L8.20255 13Z" stroke="#33363F" stroke-width="2"/>
<path d="M28.136 30L27.1557 30.1974L27.3174 31H28.136V30ZM34.7614 28.8955L35.725 28.6282V28.6282L34.7614 28.8955ZM24.6347 24.5176L24.0298 23.7212L22.8733 24.5997L24.1066 25.3667L24.6347 24.5176ZM33.8672 29H28.136V31H33.8672V29ZM33.7978 29.1627C33.7943 29.1503 33.7914 29.1249 33.7983 29.0938C33.8049 29.0646 33.8175 29.0424 33.8296 29.0278C33.8534 28.999 33.8735 29 33.8672 29V31C35.0384 31 36.0862 29.9304 35.725 28.6282L33.7978 29.1627ZM28.3334 24.3333C30.1694 24.3333 31.3809 25.0945 32.2173 26.0591C33.0808 27.0548 33.5545 28.2857 33.7978 29.1627L35.725 28.6282C35.4428 27.6107 34.8659 26.0605 33.7283 24.7488C32.5638 23.4059 30.8239 22.3333 28.3334 22.3333V24.3333ZM25.2396 25.3139C25.9945 24.7405 26.9887 24.3333 28.3334 24.3333V22.3333C26.5448 22.3333 25.1271 22.8878 24.0298 23.7212L25.2396 25.3139ZM24.1066 25.3667C26.0683 26.5868 26.8508 28.6833 27.1557 30.1974L29.1164 29.8026C28.7677 28.0713 27.8138 25.3172 25.1628 23.6684L24.1066 25.3667Z" fill="#33363F"/>
<path d="M15.3653 24.5175L15.8934 25.3667L17.1267 24.5997L15.9702 23.7212L15.3653 24.5175ZM5.23859 28.8955L4.27497 28.6282L4.27497 28.6282L5.23859 28.8955ZM11.8639 30V31H12.6826L12.8442 30.1974L11.8639 30ZM11.6667 24.3333C13.0113 24.3333 14.0056 24.7405 14.7605 25.3139L15.9702 23.7212C14.8729 22.8878 13.4552 22.3333 11.6667 22.3333V24.3333ZM6.20221 29.1627C6.44547 28.2857 6.91921 27.0548 7.78269 26.0591C8.61918 25.0945 9.83063 24.3333 11.6667 24.3333V22.3333C9.17612 22.3333 7.43625 23.4059 6.27172 24.7488C5.13417 26.0605 4.55719 27.6107 4.27497 28.6282L6.20221 29.1627ZM6.13279 29C6.12654 29 6.14665 28.999 6.17044 29.0278C6.1825 29.0424 6.19514 29.0646 6.20169 29.0938C6.20864 29.1249 6.20566 29.1503 6.20221 29.1627L4.27497 28.6282C3.9138 29.9304 4.96161 31 6.13279 31V29ZM11.8639 29H6.13279V31H11.8639V29ZM12.8442 30.1974C13.1492 28.6833 13.9317 26.5868 15.8934 25.3667L14.8372 23.6684C12.1861 25.3171 11.2323 28.0713 10.8836 29.8026L12.8442 30.1974Z" fill="#33363F"/>
<path d="M20 23.3333C26.5371 23.3333 27.9462 28.4614 28.2499 30.6721C28.325 31.2192 27.8856 31.6667 27.3333 31.6667H12.6667C12.1144 31.6667 11.6749 31.2192 11.7501 30.6721C12.0538 28.4614 13.4629 23.3333 20 23.3333Z" stroke="#33363F" stroke-width="2" stroke-linecap="round"/>
</svg>
