<?xml version="1.0" encoding="iso-8859-1"?>
<!-- Uploaded to: SVG Repo, www.svgrepo.com, Generator: SVG Repo Mixer Tools -->
<svg height="800px" width="800px" version="1.1" id="Layer_1" xmlns="http://www.w3.org/2000/svg" xmlns:xlink="http://www.w3.org/1999/xlink" 
	 viewBox="0 0 512 512" xml:space="preserve">
<path style="fill:#B36E44;" d="M504.163,338.16v43.781c0,2.299-1.87,4.169-4.18,4.169H12.016c-2.309,0-4.18-1.87-4.18-4.169V338.16
	c0-2.309,1.87-4.169,4.18-4.169h262.855c0.794,0.021,1.578,0.021,2.361,0h82.536c0.794,0.021,1.578,0.021,2.351,0h79.956
	c0.794,0.021,1.578,0.021,2.351,0h55.557C502.293,333.991,504.163,335.851,504.163,338.16z"/>
<path style="fill:#8C5635;" d="M26.645,333.991v52.12H12.016c-2.309,0-4.18-1.87-4.18-4.169V338.16c0-2.309,1.87-4.169,4.18-4.169
	L26.645,333.991L26.645,333.991z"/>
<path style="fill:#F7EDE3;" d="M332.478,290.341c-0.41,23.925-19.76,43.052-43.482,43.649c-0.748,0.02-1.497,0.02-2.256,0H58.691
	c-25.049,0-45.628-20.082-45.748-45.063c-0.32-64.269,52.324-160.11,101.305-209.602c13.682-13.829,32.345-21.645,51.815-21.825
	c2.256-0.029,4.451-0.029,6.647-0.029c9.531,0,21.337,5.158,34.201,14.168C261.082,109.531,333.775,215.488,332.478,290.341z"/>
<g>
	<path style="fill:#EBE1D8;" d="M30.303,288.927c-0.32-64.269,52.324-160.11,101.305-209.602
		c12.218-12.349,28.41-19.885,45.598-21.488c-1.546-0.233-3.051-0.366-4.497-0.366c-2.195,0-4.392,0-6.647,0.03
		c-19.471,0.18-38.134,7.995-51.815,21.825C65.266,128.819,12.622,224.659,12.942,288.928c0.12,24.98,20.698,45.063,45.748,45.063
		h17.361C51.001,333.989,30.423,313.907,30.303,288.927z"/>
	<path style="fill:#EBE1D8;" d="M413.55,290.335c-0.408,23.928-19.759,43.06-43.478,43.656h-81.074
		c23.719-0.596,43.071-19.728,43.478-43.656c1.296-74.846-71.398-180.799-125.565-218.697c2.226-1.411,4.577-2.8,7.011-4.106
		c0.721-0.397,1.452-0.784,2.184-1.16c9.686-4.984,20.616-8.777,31.033-8.871c2.267-0.031,4.451-0.031,6.656-0.031
		c8.903,0,19.769,4.504,31.64,12.413h0.01C339.843,106.162,414.866,214.309,413.55,290.335z"/>
</g>
<path style="fill:#E3DAD0;" d="M492.168,290.335c-0.408,23.928-19.759,43.06-43.489,43.656c-0.731,0.021-1.484,0.021-2.247,0
	h-76.361c23.719-0.596,43.071-19.728,43.478-43.656c1.317-76.027-73.707-184.174-128.104-220.453
	c2.947-1.87,6.113-3.574,9.425-5.089c0.815-0.376,1.641-0.742,2.476-1.087c9.017-3.793,18.934-6.123,28.4-6.207
	c2.267-0.031,4.451-0.031,6.656-0.031C382.098,57.469,493.777,197.726,492.168,290.335z"/>
<path style="fill:#362928;" d="M208.218,333.991H94.019v-90.897c0-1.436,1.164-2.6,2.6-2.6h109c1.436,0,2.6,1.164,2.6,2.6V333.991z"
	/>
<g>
	<path style="fill:#A1633D;" d="M132.869,386.111v64.24c0,2.309-1.86,4.18-4.169,4.18H68.472c-2.309,0-4.18-1.87-4.18-4.18v-64.24
		H132.869z"/>
	<path style="fill:#A1633D;" d="M447.707,379.173v71.178c0,2.309-1.87,4.18-4.18,4.18H383.3c-2.299,0-4.169-1.87-4.169-4.18v-71.178
		H447.707z"/>
</g>
<g>
	<path style="fill:#8C5635;" d="M397.939,379.173v75.358H383.3c-2.299,0-4.169-1.87-4.169-4.18v-71.178H397.939z"/>
	<path style="fill:#8C5635;" d="M83.101,379.173v75.358H68.462c-2.299,0-4.169-1.87-4.169-4.18v-71.178H83.101z"/>
</g>
<path d="M272.13,322.769c1.44,1.141,3.157,1.695,4.861,1.695c2.311,0,4.602-1.019,6.148-2.972
	c7.541-9.52,11.527-20.982,11.527-33.143c0-35.041-15.173-79.298-42.725-124.62c-2.248-3.698-7.068-4.873-10.768-2.626
	c-3.699,2.249-4.874,7.069-2.626,10.768c26.081,42.902,40.444,84.268,40.444,116.478c0,8.593-2.815,16.688-8.14,23.411
	C268.166,315.153,268.737,320.081,272.13,322.769z"/>
<path d="M220.363,144.51c1.533,2.116,3.926,3.241,6.354,3.241c1.592,0,3.201-0.484,4.59-1.49c3.505-2.538,4.289-7.439,1.751-10.944
	c-19.73-27.248-41.649-50.693-61.717-66.019c-3.44-2.626-8.358-1.968-10.985,1.472c-2.627,3.44-1.968,8.358,1.472,10.985
	C180.716,96.179,201.504,118.465,220.363,144.51z"/>
<path d="M499.984,326.152h-14.904c9.048-9.215,14.684-21.765,14.921-35.676c0.666-38.354-17.643-88.895-50.229-138.661
	c-2.371-3.622-7.229-4.633-10.849-2.263c-3.621,2.371-4.634,7.228-2.263,10.849c30.908,47.202,48.283,94.514,47.67,129.806
	c-0.335,19.637-16.042,35.411-35.786,35.946h-42.076c9.048-9.215,14.683-21.765,14.921-35.676
	c0.627-36.18-15.118-82.131-44.332-129.389c-22.537-36.458-51.099-69.794-76.823-90.096c8.391-3.54,17.416-5.579,25.619-5.655
	c2.23-0.029,4.366-0.026,6.554-0.029c19.16,0,53.35,27.422,85.076,68.236c1.545,1.987,3.857,3.027,6.193,3.027
	c1.68,0,3.374-0.539,4.804-1.65c3.417-2.656,4.033-7.58,1.377-10.997c-27.914-35.915-68.175-74.291-97.448-74.291
	c-2.239,0-4.459,0-6.729,0.03c-13.237,0.123-27.58,4.11-40.072,11.032c-11.962-7.341-22.647-11.062-31.81-11.062
	c-2.239,0-4.459,0-6.729,0.03c-14.729,0.137-29.226,6.471-39.939,12.681c-13.01-8.429-24.574-12.711-34.418-12.711
	c-2.23,0-4.46,0-6.72,0.03c-21.436,0.197-42.326,9-57.314,24.149c-8.359,8.447-16.863,18.242-25.274,29.112
	c-2.649,3.422-2.022,8.345,1.401,10.993c3.421,2.65,8.345,2.022,10.993-1.401c8.025-10.37,16.106-19.682,24.021-27.679
	c12.103-12.233,28.984-19.34,46.346-19.501c2.22-0.029,4.405-0.031,6.544-0.029c5.246,0,14.66,2.212,29.709,12.753
	c26.383,18.456,57.569,54.151,81.387,93.155c26.9,44.05,41.402,86.308,40.836,118.993c-0.335,19.64-16.048,35.416-35.792,35.946
	h-72.795v-83.058c0-5.754-4.681-10.436-10.436-10.436h-109c-5.754,0-10.436,4.681-10.436,10.436v83.058H58.67
	c-20.797-0.01-37.793-16.723-37.891-37.264c-0.197-39.843,21.891-98.117,57.645-152.082c2.391-3.608,1.404-8.471-2.204-10.862
	c-3.607-2.389-8.47-1.403-10.862,2.205C36.065,172.363,4.853,237.828,5.106,288.964c0.07,14.487,6.047,27.629,15.649,37.188h-8.74
	C5.391,326.152,0,331.539,0,338.159v43.782c0,6.62,5.391,12.007,12.016,12.007h44.442v56.408c0,6.623,5.389,12.011,12.011,12.011
	h60.23c6.623,0,12.011-5.389,12.011-12.011v-56.408h132.704c4.328,0,7.837-3.509,7.837-7.837s-3.509-7.837-7.837-7.837H15.673
	v-36.449h42.998c0.007,0,0.014,0,0.02,0h27.491v0.001h129.872v-0.001h70.587c0.411,0.009,0.823,0.015,1.233,0.015
	c0.378,0,0.753-0.006,1.125-0.015h70.795c0.387,0.008,0.773,0.016,1.158,0.016c0.375,0,0.748-0.007,1.118-0.016h8.002h0.098h76.169
	c0.412,0.009,0.823,0.015,1.232,0.015c0.391,0,0.775-0.006,1.156-0.016h47.599v36.449h-184.25c-4.328,0-7.837,3.509-7.837,7.837
	c0,4.328,3.509,7.837,7.837,7.837h59.214v56.408c0,6.623,5.389,12.011,12.011,12.011h60.23c6.623,0,12.011-5.389,12.011-12.011
	v-56.408h44.441c6.626,0,12.016-5.386,12.016-12.007v-43.782C512,331.538,506.609,326.152,499.984,326.152z M125.037,446.694H72.131
	v-52.744h52.905V446.694z M297.184,163.045c-22.397-36.678-50.159-69.588-76.011-90.452c9.439-4.65,18.445-7.187,26.07-7.258
	c2.198-0.029,4.322-0.029,6.463-0.029c4.877,0,13.541,1.868,27.378,11.099l0.792,0.526c26.275,17.806,57.557,53.102,81.851,92.399
	c27.654,44.734,42.567,87.662,41.992,120.877c-0.335,19.626-16.025,35.396-35.739,35.946h-44.587
	c9.048-9.215,14.683-21.765,14.921-35.676C340.93,254.857,325.613,209.601,297.184,163.045z M101.856,248.331h98.526v77.821h-98.526
	V248.331z M439.87,446.694h-52.905v-52.744h52.905V446.694z"/>
</svg>