<svg width="40" height="40" viewBox="0 0 40 40" fill="none" xmlns="http://www.w3.org/2000/svg">
<path d="M21.9526 5H15C11.8573 5 10.286 5 9.30965 5.97631C8.33334 6.95262 8.33334 8.52397 8.33334 11.6667V28.3333C8.33334 31.476 8.33334 33.0474 9.30965 34.0237C10.286 35 11.8573 35 15 35H25C28.1427 35 29.7141 35 30.6904 34.0237C31.6667 33.0474 31.6667 31.476 31.6667 28.3333V14.714C31.6667 14.0328 31.6667 13.6922 31.5398 13.3859C31.4129 13.0796 31.1721 12.8387 30.6904 12.357L24.3097 5.97631C23.8279 5.49459 23.5871 5.25373 23.2808 5.12687C22.9745 5 22.6339 5 21.9526 5Z" stroke="#33363F" stroke-width="2"/>
<path d="M15 21.6667L25 21.6667" stroke="#33363F" stroke-width="2" stroke-linecap="round"/>
<path d="M15 28.3333L21.6667 28.3333" stroke="#33363F" stroke-width="2" stroke-linecap="round"/>
<path d="M21.6667 5V11.6667C21.6667 13.238 21.6667 14.0237 22.1548 14.5118C22.643 15 23.4286 15 25 15H31.6667" stroke="#33363F" stroke-width="2"/>
</svg>
