<svg width="26" height="24" viewBox="0 0 26 24" fill="none" xmlns="http://www.w3.org/2000/svg">
<circle cx="1" cy="1" r="1" transform="matrix(0 -1 -1 0 14.0996 13)" fill="#33363F"/>
<path d="M13.0996 9C10.4328 9 8.06452 9.43419 6.39988 10.1C5.56478 10.4341 4.95608 10.8068 4.57251 11.1696C4.19106 11.5303 4.09956 11.8113 4.09956 12C4.09956 12.1887 4.19106 12.4697 4.57251 12.8304C4.95608 13.1932 5.56478 13.5659 6.39988 13.9C8.06452 14.5658 10.4328 15 13.0996 15C15.7663 15 18.1346 14.5658 19.7992 13.9C20.6343 13.5659 21.243 13.1932 21.6266 12.8304C22.0081 12.4697 22.0996 12.1887 22.0996 12C22.0996 11.8113 22.0081 11.5303 21.6266 11.1696C21.243 10.8068 20.6343 10.4341 19.7992 10.1C18.1346 9.43419 15.7663 9 13.0996 9Z" stroke="#33363F" stroke-width="2"/>
<path d="M10.5014 10.5C9.16801 12.8095 8.3599 15.0776 8.10423 16.8521C7.97597 17.7423 7.99442 18.4559 8.11678 18.9694C8.23847 19.4801 8.43604 19.6999 8.59947 19.7942C8.76291 19.8886 9.05198 19.9498 9.55512 19.7998C10.0611 19.649 10.6882 19.3083 11.395 18.7521C12.804 17.6434 14.3642 15.8095 15.6976 13.5C17.0309 11.1905 17.839 8.92243 18.0947 7.14788C18.223 6.25764 18.2045 5.54412 18.0822 5.03057C17.9605 4.51984 17.7629 4.30012 17.5995 4.20576C17.436 4.1114 17.147 4.05016 16.6438 4.20014C16.1379 4.35095 15.5107 4.69173 14.8039 5.24793C13.3949 6.35662 11.8348 8.1905 10.5014 10.5Z" stroke="#33363F" stroke-width="2"/>
<path d="M15.6977 10.5C17.0311 12.8095 17.8392 15.0776 18.0949 16.8521C18.2231 17.7423 18.2047 18.4559 18.0823 18.9694C17.9606 19.4801 17.7631 19.6999 17.5996 19.7942C17.4362 19.8886 17.1471 19.9498 16.644 19.7998C16.1381 19.649 15.5109 19.3083 14.8041 18.7521C13.3951 17.6434 11.8349 15.8095 10.5016 13.5C9.16818 11.1905 8.36007 8.92243 8.10439 7.14788C7.97613 6.25764 7.99459 5.54412 8.11695 5.03057C8.23863 4.51984 8.4362 4.30012 8.59964 4.20576C8.76307 4.1114 9.05214 4.05016 9.55529 4.20014C10.0612 4.35095 10.6884 4.69173 11.3952 5.24793C12.8042 6.35662 14.3643 8.1905 15.6977 10.5Z" stroke="#33363F" stroke-width="2"/>
</svg>
