<svg width="133" height="28" viewBox="0 0 133 28" fill="none" xmlns="http://www.w3.org/2000/svg">
  <path d="M2.21396 25.0873H130.631V15.9647H2.21396V25.0873Z" fill="#BED5FF" />
  <path
    d="M15.4985 20.5258C14.17 20.5258 13.2845 19.6136 13.2845 18.2452V4.56117C13.2845 3.19276 14.17 2.28058 15.4985 2.28058C16.8269 2.28058 17.7125 3.19276 17.7125 4.56117V18.2452C17.7128 19.6136 16.8269 20.5258 15.4985 20.5258Z"
    fill="#BED5FF" />
  <path
    d="M68.6367 20.5258C67.3083 20.5258 66.4227 19.6136 66.4227 18.2452V4.56117C66.4227 3.19276 67.3083 2.28058 68.6367 2.28058C69.9652 2.28058 70.8507 3.19276 70.8507 4.56117V18.2452C70.851 19.6136 69.9652 20.5258 68.6367 20.5258Z"
    fill="#BED5FF" />
  <path
    d="M81.9212 20.5258C80.5928 20.5258 79.7072 19.6136 79.7072 18.2452V4.56117C79.7072 3.19276 80.5928 2.28058 81.9212 2.28058C83.2497 2.28058 84.1352 3.19276 84.1352 4.56117V18.2452C84.1355 19.6136 83.2497 20.5258 81.9212 20.5258Z"
    fill="#BED5FF" />
  <path
    d="M95.2059 20.5258C93.8774 20.5258 92.9919 19.6136 92.9919 18.2452V4.56117C92.9919 3.19276 93.8774 2.28058 95.2059 2.28058C96.5343 2.28058 97.4199 3.19276 97.4199 4.56117V18.2452C97.4201 19.6136 96.5343 20.5258 95.2059 20.5258Z"
    fill="#BED5FF" />
  <path
    d="M108.49 20.5258C107.162 20.5258 106.276 19.6136 106.276 18.2452V4.56117C106.276 3.19276 107.162 2.28058 108.49 2.28058C109.819 2.28058 110.704 3.19276 110.704 4.56117V18.2452C110.705 19.6136 109.819 20.5258 108.49 20.5258Z"
    fill="#BED5FF" />
  <path
    d="M121.775 20.5258C120.446 20.5258 119.561 19.6136 119.561 18.2452V4.56117C119.561 3.19276 120.446 2.28058 121.775 2.28058C123.103 2.28058 123.989 3.19276 123.989 4.56117V18.2452C123.989 19.6136 123.103 20.5258 121.775 20.5258Z"
    fill="#BED5FF" />
  <path
    d="M42.0676 20.5258C40.7391 20.5258 39.8536 19.6136 39.8536 18.2452V4.56117C39.8536 3.19276 40.7391 2.28058 42.0676 2.28058C43.396 2.28058 44.2816 3.19276 44.2816 4.56117V18.2452C44.2818 19.6136 43.396 20.5258 42.0676 20.5258Z"
    fill="#BED5FF" />
  <path
    d="M28.7831 20.5258C27.4546 20.5258 26.5691 19.6136 26.5691 18.2452V4.56117C26.5691 3.19276 27.4546 2.28058 28.7831 2.28058C30.1116 2.28058 30.9971 3.19276 30.9971 4.56117V18.2452C30.9974 19.6136 30.1116 20.5258 28.7831 20.5258Z"
    fill="#BED5FF" />
  <path
    d="M55.3522 20.5258C54.0237 20.5258 53.1382 19.6136 53.1382 18.2452V4.56117C53.1382 3.19276 54.0237 2.28058 55.3522 2.28058C56.6806 2.28058 57.5662 3.19276 57.5662 4.56117V18.2452C57.5665 19.6136 56.6806 20.5258 55.3522 20.5258Z"
    fill="#BED5FF" />
  <path
    d="M130.631 6.84176H4.42821C3.09975 6.84176 2.2142 5.92958 2.2142 4.56117C2.2142 3.19276 3.09975 2.28058 4.42821 2.28058H130.631C131.96 2.28058 132.845 3.19276 132.845 4.56117C132.845 5.92958 131.96 6.84176 130.631 6.84176Z"
    fill="#BED5FF" />
  <path
    d="M130.631 27.368H2.21397C0.88552 27.368 -3.05176e-05 26.4558 -3.05176e-05 25.0874V15.9647C-3.05176e-05 14.5963 0.88552 13.6841 2.21397 13.6841H130.631C131.96 13.6841 132.845 14.5963 132.845 15.9647V25.0874C132.845 26.4558 131.96 27.368 130.631 27.368ZM4.42824 22.8068H128.417V18.2453H4.42824V22.8068Z"
    fill="#1a1c1d" />
  <path
    d="M13.2845 18.2453C11.9561 18.2453 11.0705 17.3331 11.0705 15.9647V2.28059C11.0705 0.912182 11.9561 0 13.2845 0C14.613 0 15.4985 0.912182 15.4985 2.28059V15.9647C15.4985 17.3331 14.613 18.2453 13.2845 18.2453Z"
    fill="#1a1c1d" />
  <path
    d="M66.4227 18.2453C65.0943 18.2453 64.2087 17.3331 64.2087 15.9647V2.28059C64.2087 0.912182 65.0943 0 66.4227 0C67.7512 0 68.6367 0.912182 68.6367 2.28059V15.9647C68.6367 17.3331 67.7512 18.2453 66.4227 18.2453Z"
    fill="#1a1c1d" />
  <path
    d="M79.7073 18.2453C78.3788 18.2453 77.4933 17.3331 77.4933 15.9647V2.28059C77.4933 0.912182 78.3788 0 79.7073 0C81.0358 0 81.9213 0.912182 81.9213 2.28059V15.9647C81.9213 17.3331 81.0358 18.2453 79.7073 18.2453Z"
    fill="#1a1c1d" />
  <path
    d="M92.9918 18.2453C91.6633 18.2453 90.7778 17.3331 90.7778 15.9647V2.28059C90.7778 0.912182 91.6633 0 92.9918 0C94.3203 0 95.2058 0.912182 95.2058 2.28059V15.9647C95.2058 17.3331 94.3203 18.2453 92.9918 18.2453Z"
    fill="#1a1c1d" />
  <path
    d="M106.276 18.2453C104.948 18.2453 104.062 17.3331 104.062 15.9647V2.28059C104.062 0.912182 104.948 0 106.276 0C107.605 0 108.49 0.912182 108.49 2.28059V15.9647C108.49 17.3331 107.605 18.2453 106.276 18.2453Z"
    fill="#1a1c1d" />
  <path
    d="M119.561 18.2453C118.232 18.2453 117.347 17.3331 117.347 15.9647V2.28059C117.347 0.912182 118.232 0 119.561 0C120.889 0 121.775 0.912182 121.775 2.28059V15.9647C121.775 17.3331 120.889 18.2453 119.561 18.2453Z"
    fill="#1a1c1d" />
  <path
    d="M39.8536 18.2453C38.5251 18.2453 37.6396 17.3331 37.6396 15.9647V2.28059C37.6396 0.912182 38.5251 0 39.8536 0C41.182 0 42.0676 0.912182 42.0676 2.28059V15.9647C42.0676 17.3331 41.182 18.2453 39.8536 18.2453Z"
    fill="#1a1c1d" />
  <path
    d="M26.5692 18.2453C25.2407 18.2453 24.3552 17.3331 24.3552 15.9647V2.28059C24.3552 0.912182 25.2407 0 26.5692 0C27.8977 0 28.7832 0.912182 28.7832 2.28059V15.9647C28.7832 17.3331 27.8977 18.2453 26.5692 18.2453Z"
    fill="#1a1c1d" />
  <path
    d="M53.1382 18.2453C51.8097 18.2453 50.9242 17.3331 50.9242 15.9647V2.28059C50.9242 0.912182 51.8097 0 53.1382 0C54.4666 0 55.3522 0.912182 55.3522 2.28059V15.9647C55.3522 17.3331 54.4666 18.2453 53.1382 18.2453Z"
    fill="#1a1c1d" />
  <path
    d="M130.631 4.56118H2.214C0.88555 4.56118 0 3.649 0 2.28059C0 0.912182 0.88555 0 2.214 0H130.631C131.96 0 132.845 0.912182 132.845 2.28059C132.845 3.649 131.96 4.56118 130.631 4.56118Z"
    fill="#1a1c1d" />
</svg>
