<svg width="25" height="24" viewBox="0 0 25 24" fill="none" xmlns="http://www.w3.org/2000/svg">
<path d="M13.8118 20.1078L13.3651 19.2131L13.8118 20.1078ZM14.0302 19.7587L13.0305 19.7373L14.0302 19.7587ZM10.238 20.1078L10.6847 19.2131L10.6847 19.2131L10.238 20.1078ZM9.16478 15.6858L10.0888 15.3035L9.16478 15.6858ZM8.9391 15.2337L9.72894 14.6204L8.9391 15.2337ZM15.6255 14.8037L16.2249 15.6042L15.6255 14.8037ZM14.885 15.6858L15.809 16.0682L14.885 15.6858ZM15.1107 15.2337L15.9005 15.847L15.1107 15.2337ZM17.0332 10C17.0332 11.6362 16.247 13.0892 15.0262 14.0032L16.2249 15.6042C17.9277 14.3293 19.0332 12.2936 19.0332 10H17.0332ZM12.0249 5C14.7922 5 17.0332 7.23988 17.0332 10H19.0332C19.0332 6.1327 15.8942 3 12.0249 3V5ZM7.0166 10C7.0166 7.23988 9.25759 5 12.0249 5V3C8.15563 3 5.0166 6.1327 5.0166 10H7.0166ZM9.0236 14.0032C7.80284 13.0892 7.0166 11.6362 7.0166 10H5.0166C5.0166 12.2936 6.12205 14.3293 7.82495 15.6042L9.0236 14.0032ZM11.0193 19.7373C10.9867 18.2107 10.6698 16.7074 10.0888 15.3035L8.24077 16.0682C8.72714 17.2436 8.99245 18.5021 9.01978 19.7801L11.0193 19.7373ZM13.3651 19.2131C12.5213 19.6344 11.5285 19.6344 10.6847 19.2131L9.79131 21.0025C11.1976 21.7046 12.8522 21.7046 14.2585 21.0025L13.3651 19.2131ZM13.961 15.3035C13.38 16.7074 13.0631 18.2107 13.0305 19.7373L15.03 19.7801C15.0574 18.5021 15.3227 17.2436 15.809 16.0682L13.961 15.3035ZM14.2585 21.0025C14.7337 20.7652 15.0192 20.287 15.03 19.7801L13.0305 19.7373C13.035 19.5261 13.1545 19.3183 13.3651 19.2131L14.2585 21.0025ZM9.01978 19.7801C9.03062 20.287 9.31611 20.7652 9.79131 21.0025L10.6847 19.2131C10.8953 19.3183 11.0148 19.5261 11.0193 19.7373L9.01978 19.7801ZM7.82495 15.6042C7.97592 15.7172 8.06409 15.7835 8.12637 15.8343C8.18894 15.8854 8.17709 15.8829 8.14926 15.847L9.72894 14.6204C9.54154 14.379 9.25057 14.1731 9.0236 14.0032L7.82495 15.6042ZM10.0888 15.3035C10.0104 15.1139 9.91187 14.856 9.72894 14.6204L8.14926 15.847C8.13574 15.8296 8.13323 15.8202 8.1463 15.8473C8.15415 15.8636 8.16501 15.8876 8.18133 15.9258C8.1978 15.9644 8.21631 16.0091 8.24077 16.0682L10.0888 15.3035ZM15.0262 14.0032C14.7992 14.1731 14.5083 14.379 14.3209 14.6204L15.9005 15.847C15.8727 15.8829 15.8609 15.8854 15.9234 15.8343C15.9857 15.7835 16.0739 15.7172 16.2249 15.6042L15.0262 14.0032ZM15.809 16.0682C15.8335 16.0091 15.852 15.9644 15.8685 15.9258C15.8848 15.8876 15.8957 15.8636 15.9035 15.8473C15.9166 15.8202 15.9141 15.8296 15.9005 15.847L14.3209 14.6204C14.1379 14.856 14.0395 15.1139 13.961 15.3035L15.809 16.0682Z" fill="#33363F"/>
<path d="M15.0213 16V16C13.2073 17.2108 10.8428 17.2108 9.02881 16V16" stroke="#33363F" stroke-width="2"/>
</svg>
