<svg width="26" height="24" viewBox="0 0 26 24" fill="none" xmlns="http://www.w3.org/2000/svg">
<path d="M7.92115 5H18.0041C18.9828 5 19.617 5.00209 20.0847 5.06445C20.5245 5.12309 20.6643 5.21821 20.7425 5.29581C20.8196 5.37227 20.914 5.50757 20.9726 5.93979C21.0352 6.40163 21.0373 7.02869 21.0373 8V16H4.88795V8C4.88795 7.02869 4.89011 6.40163 4.95272 5.93979C5.01132 5.50757 5.10569 5.37227 5.18278 5.29581C5.26102 5.21821 5.40081 5.12309 5.84056 5.06445C6.30825 5.00209 6.94247 5 7.92115 5Z" stroke="#33363F" stroke-width="2"/>
<path d="M21.3651 16H4.56015C3.64443 16 2.88795 16.7384 2.88795 17.6667C2.88795 18.9631 3.94539 20 5.23235 20H20.6929C21.9799 20 23.0373 18.9631 23.0373 17.6667C23.0373 16.7384 22.2809 16 21.3651 16Z" stroke="#33363F" stroke-width="2"/>
</svg>
